<svg width="69" height="69" viewBox="0 0 69 69" fill="none" xmlns="http://www.w3.org/2000/svg">
<circle cx="34.5" cy="34.5" r="34.5" fill="white"/>
<path d="M54.42 51.58L51 48.12C51 47.9 51 47.7 51 47.5C51 46.7777 50.8577 46.0625 50.5813 45.3952C50.3049 44.7279 49.8998 44.1216 49.3891 43.6109C48.8784 43.1002 48.272 42.6951 47.6048 42.4187C46.9375 42.1423 46.2223 42 45.5 42H44.82L41.94 39.12C42.1158 39.0401 42.3069 38.9992 42.5 39H49C49.5304 39 50.0391 38.7893 50.4142 38.4142C50.7893 38.0391 51 37.5304 51 37C51 36.4696 50.7893 35.9609 50.4142 35.5858C50.0391 35.2107 49.5304 35 49 35H46V33C46 32.4696 45.7893 31.9609 45.4142 31.5858C45.0391 31.2107 44.5304 31 44 31C43.4696 31 42.9609 31.2107 42.5858 31.5858C42.2107 31.9609 42 32.4696 42 33V35C40.9252 35.0953 39.9025 35.5058 39.06 36.18L36.42 33.52C36.0434 33.1434 35.5326 32.9318 35 32.9318C34.4674 32.9318 33.9566 33.1434 33.58 33.52C33.2034 33.8966 32.9918 34.4074 32.9918 34.94C32.9918 35.4726 33.2034 35.9834 33.58 36.36L37 39.88C37 40.1 37 40.3 37 40.5C37 41.9587 37.5795 43.3576 38.6109 44.3891C39.6424 45.4205 41.0413 46 42.5 46H43.18L46.06 48.88C45.8842 48.9599 45.6931 49.0008 45.5 49H39C38.4696 49 37.9609 49.2107 37.5858 49.5858C37.2107 49.9609 37 50.4696 37 51C37 51.5304 37.2107 52.0391 37.5858 52.4142C37.9609 52.7893 38.4696 53 39 53H42V55C42 55.5304 42.2107 56.0391 42.5858 56.4142C42.9609 56.7893 43.4696 57 44 57C44.5304 57 45.0391 56.7893 45.4142 56.4142C45.7893 56.0391 46 55.5304 46 55V53C47.1023 52.8991 48.1482 52.4668 49 51.76L51.64 54.42C51.8259 54.6075 52.0471 54.7562 52.2908 54.8578C52.5346 54.9593 52.796 55.0116 53.06 55.0116C53.324 55.0116 53.5854 54.9593 53.8292 54.8578C54.0729 54.7562 54.2941 54.6075 54.48 54.42C54.6636 54.2301 54.8077 54.0058 54.9042 53.7599C55.0006 53.5141 55.0474 53.2515 55.0418 52.9875C55.0362 52.7235 54.9784 52.4631 54.8717 52.2216C54.7649 51.98 54.6114 51.7619 54.42 51.58ZM31 49H21C20.4696 49 19.9609 48.7893 19.5858 48.4142C19.2107 48.0391 19 47.5304 19 47V19C19 18.4696 19.2107 17.9609 19.5858 17.5858C19.9609 17.2107 20.4696 17 21 17H33V25C33 25.5304 33.2107 26.0391 33.5858 26.4142C33.9609 26.7893 34.4696 27 35 27H45C45.3949 26.998 45.7803 26.8792 46.1077 26.6586C46.4352 26.4379 46.69 26.1252 46.84 25.76C46.9932 25.3958 47.035 24.9944 46.9603 24.6064C46.8855 24.2184 46.6975 23.8612 46.42 23.58L36.42 13.58C36.2547 13.4244 36.0656 13.2962 35.86 13.2H35.68C35.5015 13.1123 35.3137 13.0452 35.12 13H21C19.4087 13 17.8826 13.6321 16.7574 14.7574C15.6321 15.8826 15 17.4087 15 19V47C15 48.5913 15.6321 50.1174 16.7574 51.2426C17.8826 52.3679 19.4087 53 21 53H31C31.5304 53 32.0391 52.7893 32.4142 52.4142C32.7893 52.0391 33 51.5304 33 51C33 50.4696 32.7893 49.9609 32.4142 49.5858C32.0391 49.2107 31.5304 49 31 49ZM37 19.82L40.18 23H37V19.82Z" fill="#004181"/>
</svg>
