<svg width="69" height="69" viewBox="0 0 69 69" fill="none" xmlns="http://www.w3.org/2000/svg">
<circle cx="34.5" cy="34.5" r="34.5" fill="white"/>
<path d="M34.6 35.44C35.6672 34.5163 36.5231 33.3738 37.1097 32.09C37.6964 30.8063 38 29.4114 38 28C38 25.3478 36.9464 22.8043 35.0711 20.9289C33.1957 19.0536 30.6522 18 28 18C25.3478 18 22.8043 19.0536 20.9289 20.9289C19.0536 22.8043 18 25.3478 18 28C18 29.4114 18.3036 30.8063 18.8903 32.09C19.4769 33.3738 20.3328 34.5163 21.4 35.44C18.6003 36.7078 16.2249 38.7551 14.558 41.3371C12.891 43.9191 12.0029 46.9266 12 50C12 50.5304 12.2107 51.0391 12.5858 51.4142C12.9609 51.7893 13.4696 52 14 52C14.5304 52 15.0391 51.7893 15.4142 51.4142C15.7893 51.0391 16 50.5304 16 50C16 46.8174 17.2643 43.7652 19.5147 41.5147C21.7652 39.2643 24.8174 38 28 38C31.1826 38 34.2348 39.2643 36.4853 41.5147C38.7357 43.7652 40 46.8174 40 50C40 50.5304 40.2107 51.0391 40.5858 51.4142C40.9609 51.7893 41.4696 52 42 52C42.5304 52 43.0391 51.7893 43.4142 51.4142C43.7893 51.0391 44 50.5304 44 50C43.9971 46.9266 43.109 43.9191 41.442 41.3371C39.7751 38.7551 37.3997 36.7078 34.6 35.44ZM28 34C26.8133 34 25.6533 33.6481 24.6666 32.9888C23.6799 32.3295 22.9108 31.3925 22.4567 30.2961C22.0026 29.1997 21.8838 27.9933 22.1153 26.8295C22.3468 25.6656 22.9182 24.5965 23.7574 23.7574C24.5965 22.9182 25.6656 22.3468 26.8295 22.1153C27.9933 21.8838 29.1997 22.0026 30.2961 22.4567C31.3925 22.9108 32.3295 23.6799 32.9888 24.6666C33.6481 25.6533 34 26.8133 34 28C34 29.5913 33.3679 31.1174 32.2426 32.2426C31.1174 33.3679 29.5913 34 28 34ZM47.48 34.64C48.7599 33.1987 49.596 31.4181 49.8876 29.5127C50.1792 27.6072 49.9139 25.6581 49.1235 23.9C48.3332 22.1419 47.0516 20.6496 45.4329 19.6028C43.8143 18.5561 41.9276 17.9995 40 18C39.4696 18 38.9609 18.2107 38.5858 18.5858C38.2107 18.9609 38 19.4696 38 20C38 20.5304 38.2107 21.0391 38.5858 21.4142C38.9609 21.7893 39.4696 22 40 22C41.5913 22 43.1174 22.6321 44.2426 23.7574C45.3679 24.8826 46 26.4087 46 28C45.9972 29.0505 45.7186 30.0818 45.1921 30.9908C44.6657 31.8999 43.9097 32.6548 43 33.18C42.7035 33.351 42.4558 33.5953 42.2807 33.8895C42.1056 34.1836 42.009 34.5178 42 34.86C41.9916 35.1995 42.0699 35.5356 42.2273 35.8365C42.3848 36.1374 42.6163 36.3933 42.9 36.58L43.68 37.1L43.94 37.24C46.3508 38.3834 48.3846 40.192 49.802 42.4526C51.2193 44.7133 51.9611 47.3319 51.94 50C51.94 50.5304 52.1507 51.0391 52.5258 51.4142C52.9009 51.7893 53.4096 52 53.94 52C54.4704 52 54.9791 51.7893 55.3542 51.4142C55.7293 51.0391 55.94 50.5304 55.94 50C55.9563 46.9309 55.1876 43.9085 53.7069 41.2201C52.2262 38.5317 50.0827 36.2666 47.48 34.64Z" fill="#004181"/>
</svg>
